HIERARCHY
ROOT Hips
{
	OFFSET 0.00000 0.00000 0.00000
	CHANNELS 6 Xposition Yposition Zposition Zrotation Yrotation Xrotation 
	JOINT LHipJoint
	{
		OFFSET 0 0 0
		CHANNELS 3 Zrotation Yrotation Xrotation
		JOINT LeftUpLeg
		{
			OFFSET 1.48831 -1.59570 0.95625
			CHANNELS 3 Zrotation Yrotation Xrotation
			JOINT LeftLeg
			{
				OFFSET 2.20856 -6.06797 0.00000
				CHANNELS 3 Zrotation Yrotation Xrotation
				JOINT LeftFoot
				{
					OFFSET 2.62924 -7.22379 0.00000
					CHANNELS 3 Zrotation Yrotation Xrotation
					JOINT LeftToeBase
					{
						OFFSET 0.16802 -0.46163 2.41673
						CHANNELS 3 Zrotation Yrotation Xrotation
						End Site
						{
							OFFSET 0.00000 -0.00000 1.23760
						}
					}
				}
			}
		}
	}
	JOINT RHipJoint
	{
		OFFSET 0 0 0
		CHANNELS 3 Zrotation Yrotation Xrotation
		JOINT RightUpLeg
		{
			OFFSET -1.56796 -1.59570 0.95625
			CHANNELS 3 Zrotation Yrotation Xrotation
			JOINT RightLeg
			{
				OFFSET -2.29239 -6.29829 0.00000
				CHANNELS 3 Zrotation Yrotation Xrotation
				JOINT RightFoot
				{
					OFFSET -2.66963 -7.33475 0.00000
					CHANNELS 3 Zrotation Yrotation Xrotation
					JOINT RightToeBase
					{
						OFFSET -0.18185 -0.49964 2.34359
						CHANNELS 3 Zrotation Yrotation Xrotation
						End Site
						{
							OFFSET -0.00000 -0.00000 1.20477
						}
					}
				}
			}
		}
	}
	JOINT LowerBack
	{
		OFFSET 0 0 0
		CHANNELS 3 Zrotation Yrotation Xrotation
		JOINT Spine
		{
			OFFSET 0.03505 2.15832 -0.34324
			CHANNELS 3 Zrotation Yrotation Xrotation
			JOINT Spine1
			{
				OFFSET -0.01089 2.17963 0.04689
				CHANNELS 3 Zrotation Yrotation Xrotation
				JOINT Neck
				{
					OFFSET 0 0 0
					CHANNELS 3 Zrotation Yrotation Xrotation
					JOINT Neck1
					{
						OFFSET 0.04686 1.69404 0.22159
						CHANNELS 3 Zrotation Yrotation Xrotation
						JOINT Head
						{
							OFFSET 0.00265 1.69305 -0.01513
							CHANNELS 3 Zrotation Yrotation Xrotation
							End Site
							{
								OFFSET -0.00415 1.80215 -0.03034
							}
						}
					}
				}
				JOINT LeftShoulder
				{
					OFFSET 0 0 0
					CHANNELS 3 Zrotation Yrotation Xrotation
					JOINT LeftArm
					{
						OFFSET 3.67184 1.11724 -0.19002
						CHANNELS 3 Zrotation Yrotation Xrotation
						JOINT LeftForeArm
						{
							OFFSET 5.17714 -0.00000 -0.00000
							CHANNELS 3 Zrotation Yrotation Xrotation
							JOINT LeftHand
							{
								OFFSET 3.43679 -0.00000 -0.00000
								CHANNELS 3 Zrotation Yrotation Xrotation
								JOINT LeftFingerBase
								{
									OFFSET 0 0 0
									CHANNELS 3 Zrotation Yrotation Xrotation
									JOINT LeftHandIndex1
									{
										OFFSET 0.57312 -0.00000 -0.00000
										CHANNELS 3 Zrotation Yrotation Xrotation
										End Site
										{
											OFFSET 0.46206 -0.00000 -0.00000
										}
									}
								}
								JOINT LThumb
								{
									OFFSET 0 0 0
									CHANNELS 3 Zrotation Yrotation Xrotation
									End Site
									{
										OFFSET 0.46912 -0.00000 0.46912
									}
								}
							}
						}
					}
				}
				JOINT RightShoulder
				{
					OFFSET 0 0 0
					CHANNELS 3 Zrotation Yrotation Xrotation
					JOINT RightArm
					{
						OFFSET -3.59596 0.95831 -0.26050
						CHANNELS 3 Zrotation Yrotation Xrotation
						JOINT RightForeArm
						{
							OFFSET -5.23908 -0.00000 -0.00000
							CHANNELS 3 Zrotation Yrotation Xrotation
							JOINT RightHand
							{
								OFFSET -3.46485 -0.00000 -0.00000
								CHANNELS 3 Zrotation Yrotation Xrotation
								JOINT RightFingerBase
								{
									OFFSET 0 0 0
									CHANNELS 3 Zrotation Yrotation Xrotation
									JOINT RightHandIndex1
									{
										OFFSET -0.60875 -0.00000 -0.00000
										CHANNELS 3 Zrotation Yrotation Xrotation
										End Site
										{
											OFFSET -0.49079 -0.00000 -0.00000
										}
									}
								}
								JOINT RThumb
								{
									OFFSET 0 0 0
									CHANNELS 3 Zrotation Yrotation Xrotation
									End Site
									{
										OFFSET -0.49829 -0.00000 0.49829
									}
								}
							}
						}
					}
				}
			}
		}
	}
}
MOTION
Frames: 14
Frame Time: .0083333
2.6208 16.3759 -6.4420 -166.9850 -82.1308 163.6840 0.0000 0.0000 0.0000 -23.7264 11.8988 -2.5349 1.2686 7.1391 20.1280 1.4972 15.5410 -33.2042 0.2042 2.9097 8.0275 0.0000 0.0000 0.0000 17.2604 0.9179 -12.2982 -5.4847 -13.9097 42.8770 -2.5656 -14.1081 -37.8287 -0.0019 -0.2810 0.7721 -0.7244 -0.5618 -0.2859 0.2688 -0.7617 2.1941 0.6628 -0.4055 2.4223 -2.2169 -4.4327 -3.3837 1.3960 -5.8453 0.8680 0.6855 -2.9138 0.9379 0.0000 -0.0000 0.0000 -87.5494 -3.0266 11.1942 10.1811 -17.0223 -1.5275 -0.0000 0.0000 -5.6675 10.4776 20.4661 3.6998 -7.1250 0.0000 -0.0000 -17.8007 49.9066 -2.2153 0.0000 -0.0000 0.0000 85.9730 -3.9484 8.0875 -14.0968 22.8730 -2.8656 0.0000 0.0000 15.1134 -7.4038 -14.1158 1.8152 7.1250 -0.0000 -0.0000 18.1909 -43.4357 0.7279
2.6224 16.3742 -6.4239 -166.4390 -82.2887 163.1030 0.0000 0.0000 0.0000 -23.7357 11.9068 -2.5198 1.2698 7.1422 20.1374 1.4974 15.4367 -33.1118 0.2018 2.8928 7.9806 0.0000 0.0000 0.0000 17.1938 0.8449 -12.4037 -5.5350 -13.9620 43.0856 -2.5415 -14.1546 -37.7417 -0.0016 -0.2598 0.7138 -0.7388 -0.5576 -0.2734 0.2511 -0.7557 2.2022 0.6530 -0.4027 2.4234 -2.3006 -4.4967 -3.3541 1.4768 -5.9293 0.8928 0.7228 -2.9552 0.9479 0.0000 -0.0000 0.0000 -87.5696 -2.9918 10.8902 10.1010 -16.8973 -1.5042 -0.0000 0.0000 -5.5190 10.2253 20.8545 3.6743 -7.1250 0.0000 -0.0000 -18.2088 50.2391 -2.4217 0.0000 -0.0000 0.0000 85.9522 -3.8486 7.9093 -14.0453 22.7995 -2.8457 0.0000 0.0000 15.2709 -7.3540 -14.2951 1.8252 7.1250 -0.0000 -0.0000 18.2932 -43.6014 0.6547
2.6240 16.3724 -6.4061 -165.8450 -82.4467 162.4740 0.0000 0.0000 0.0000 -23.7400 11.9150 -2.5026 1.2707 7.1447 20.1448 1.4960 15.3368 -33.0146 0.1986 2.8700 7.9169 0.0000 0.0000 0.0000 17.1341 0.7831 -12.4994 -5.5841 -14.0129 43.2889 -2.5167 -14.2138 -37.6601 -0.0013 -0.2346 0.6447 -0.7500 -0.5516 -0.2585 0.2342 -0.7475 2.2112 0.6422 -0.3987 2.4240 -2.3844 -4.5628 -3.3289 1.5580 -6.0161 0.9188 0.7601 -2.9980 0.9594 -0.0000 -0.0000 0.0000 -87.5810 -2.9569 10.6227 10.0288 -16.7847 -1.4833 -0.0000 0.0000 -5.3832 9.9992 21.0939 3.6308 -7.1250 0.0000 -0.0000 -18.5295 50.4321 -2.5571 -0.0000 -0.0000 0.0000 85.9309 -3.7535 7.7483 -14.0009 22.7360 -2.8285 0.0000 0.0000 15.4475 -7.3105 -14.4584 1.8346 7.1250 -0.0000 -0.0000 18.3855 -43.7525 0.5871
2.6256 16.3708 -6.3886 -165.2520 -82.6063 161.8470 0.0000 0.0000 0.0000 -23.7467 11.9286 -2.4853 1.2710 7.1456 20.1475 1.4935 15.2356 -32.9096 0.1952 2.8455 7.8489 0.0000 0.0000 0.0000 17.0728 0.7322 -12.5886 -5.6326 -14.0626 43.4887 -2.4915 -14.2816 -37.5824 -0.0010 -0.2076 0.5704 -0.7667 -0.5439 -0.2492 0.2169 -0.7368 2.2240 0.6341 -0.3937 2.4318 -2.4678 -4.6322 -3.3102 1.6389 -6.1074 0.9450 0.7971 -3.0430 0.9722 -0.0000 -0.0000 0.0000 -87.5841 -2.9294 10.3929 9.9605 -16.6777 -1.4636 -0.0000 0.0000 -5.2440 9.7646 21.2329 3.5664 -7.1250 0.0000 -0.0000 -18.8142 50.5276 -2.6441 -0.0000 -0.0000 0.0000 85.9049 -3.6550 7.5713 -13.9542 22.6691 -2.8104 0.0000 0.0000 15.7021 -7.2271 -14.5032 1.8190 7.1250 -0.0000 -0.0000 18.4734 -43.7860 0.5742
2.6273 16.3694 -6.3714 -164.6400 -82.7657 161.2050 0.0000 0.0000 0.0000 -23.7535 11.9439 -2.4730 1.2707 7.1446 20.1445 1.4898 15.1335 -32.7970 0.1918 2.8205 7.7793 0.0000 0.0000 0.0000 17.0145 0.6967 -12.6775 -5.6806 -14.1115 43.6860 -2.4655 -14.3612 -37.5098 -0.0008 -0.1799 0.4942 -0.7861 -0.5338 -0.2427 0.1998 -0.7228 2.2346 0.6278 -0.3870 2.4388 -2.5509 -4.7045 -3.2892 1.7205 -6.2026 0.9702 0.8341 -3.0901 0.9847 0.0000 0.0000 0.0000 -87.5791 -2.9037 10.1928 9.8958 -16.5765 -1.4451 -0.0000 0.0000 -5.0870 9.5000 21.3175 3.4813 -7.1250 0.0000 -0.0000 -19.1025 50.5662 -2.7059 0.0000 0.0000 0.0000 85.8762 -3.5610 7.4004 -13.9083 22.6034 -2.7928 0.0000 0.0000 15.9941 -7.1201 -14.4976 1.7911 7.1250 -0.0000 -0.0000 18.5650 -43.7691 0.5853
2.6289 16.3682 -6.3545 -164.0320 -82.9259 160.5720 0.0000 0.0000 0.0000 -23.7630 11.9668 -2.4629 1.2693 7.1410 20.1337 1.4847 15.0302 -32.6749 0.1882 2.7940 7.7057 0.0000 0.0000 0.0000 16.9543 0.6754 -12.7632 -5.7285 -14.1599 43.8820 -2.4429 -14.4339 -37.4491 -0.0006 -0.1587 0.4361 -0.8127 -0.5224 -0.2416 0.1826 -0.7069 2.2455 0.6253 -0.3796 2.4492 -2.6339 -4.7784 -3.2622 1.8034 -6.3002 0.9895 0.8718 -3.1383 0.9945 0.0000 -0.0000 0.0000 -87.5653 -2.8717 10.0478 9.8439 -16.4950 -1.4303 -0.0000 0.0000 -4.9433 9.1841 21.4221 3.3794 -7.1250 0.0000 -0.0000 -19.4489 50.6155 -2.7825 0.0000 -0.0000 0.0000 85.8444 -3.4742 7.2470 -13.8679 22.5455 -2.7772 0.0000 0.0000 16.3060 -7.0168 -14.4493 1.7591 7.1250 -0.0000 -0.0000 18.6390 -43.7119 0.6152
2.6305 16.3671 -6.3379 -163.4560 -83.0912 159.9700 0.0000 0.0000 0.0000 -23.7799 11.9959 -2.4514 1.2670 7.1345 20.1146 1.4790 14.9216 -32.5448 0.1849 2.7694 7.6373 0.0000 0.0000 0.0000 16.8862 0.6598 -12.8459 -5.7765 -14.2082 44.0779 -2.4240 -14.4939 -37.3979 -0.0005 -0.1470 0.4040 -0.8501 -0.5109 -0.2412 0.1643 -0.6906 2.2542 0.6279 -0.3721 2.4580 -2.7187 -4.8515 -3.2284 1.8888 -6.3970 1.0054 0.9108 -3.1861 1.0025 0.0000 0.0000 0.0000 -87.5442 -2.8241 9.9670 9.8084 -16.4394 -1.4203 -0.0000 0.0000 -4.8481 8.8448 21.5593 3.2726 -7.1250 0.0000 -0.0000 -19.8331 50.6915 -2.8793 0.0000 0.0000 0.0000 85.8085 -3.3988 7.1342 -13.8369 22.5010 -2.7654 0.0000 0.0000 16.5915 -6.9587 -14.4089 1.7396 7.1250 -0.0000 -0.0000 18.6762 -43.6672 0.6379
2.6319 16.3660 -6.3215 -162.8820 -83.2601 159.3730 0.0000 0.0000 0.0000 -23.8006 12.0318 -2.4386 1.2634 7.1250 20.0862 1.4713 14.8147 -32.4040 0.1809 2.7397 7.5550 0.0000 0.0000 0.0000 16.8136 0.6483 -12.9268 -5.8247 -14.2563 44.2741 -2.4075 -14.5465 -37.3529 -0.0005 -0.1392 0.3825 -0.8935 -0.4995 -0.2446 0.1453 -0.6743 2.2629 0.6330 -0.3648 2.4688 -2.8002 -4.9252 -3.1944 1.9710 -6.4946 1.0233 0.9482 -3.2344 1.0111 0.0000 -0.0000 0.0000 -87.5157 -2.7625 9.9494 9.7906 -16.4114 -1.4152 -0.0000 0.0000 -4.8215 8.5041 21.7286 3.1684 -7.1250 0.0000 -0.0000 -20.2348 50.7968 -2.9957 0.0000 -0.0000 0.0000 85.7706 -3.3336 7.0772 -13.8218 22.4794 -2.7596 0.0000 0.0000 16.8034 -6.9700 -14.4169 1.7434 7.1250 -0.0000 -0.0000 18.6690 -43.6760 0.6334
2.6332 16.3649 -6.3052 -162.3080 -83.4364 158.7730 0.0000 0.0000 0.0000 -23.8254 12.0752 -2.4212 1.2591 7.1132 20.0512 1.4622 14.7056 -32.2529 0.1765 2.7059 7.4611 0.0000 0.0000 0.0000 16.7338 0.6337 -13.0028 -5.8732 -14.3044 44.4709 -2.3932 -14.5885 -37.3119 -0.0005 -0.1389 0.3815 -0.9426 -0.4898 -0.2451 0.1251 -0.6603 2.2700 0.6401 -0.3586 2.4765 -2.8820 -4.9959 -3.1576 2.0550 -6.5886 1.0427 0.9864 -3.2809 1.0198 -0.0000 -0.0000 0.0000 -87.4820 -2.6917 9.9598 9.7823 -16.3984 -1.4129 -0.0000 0.0000 -4.8365 8.1847 21.9357 3.0755 -7.1250 0.0000 -0.0000 -20.6364 50.9401 -3.1345 -0.0000 -0.0000 0.0000 85.7322 -3.2827 7.0759 -13.8220 22.4797 -2.7597 0.0000 0.0000 16.9245 -7.0865 -14.4752 1.7799 7.1250 -0.0000 -0.0000 18.5869 -43.7441 0.5980
2.6343 16.3636 -6.2889 -161.7250 -83.6194 158.1590 0.0000 0.0000 0.0000 -23.8532 12.1268 -2.3999 1.2544 7.1005 20.0133 1.4518 14.5949 -32.0920 0.1713 2.6661 7.3505 0.0000 0.0000 0.0000 16.6469 0.6134 -13.0731 -5.9219 -14.3522 44.6676 -2.3774 -14.6349 -37.2663 -0.0004 -0.1367 0.3755 -0.9941 -0.4814 -0.2448 0.1035 -0.6479 2.2793 0.6471 -0.3534 2.4860 -2.9613 -5.0663 -3.1228 2.1369 -6.6821 1.0641 1.0236 -3.3272 1.0294 -0.0000 0.0000 0.0000 -87.4435 -2.6148 9.9858 9.7911 -16.4121 -1.4154 -0.0000 0.0000 -4.8553 7.8520 22.2250 2.9860 -7.1250 0.0000 -0.0000 -21.0936 51.1571 -3.3252 -0.0000 0.0000 0.0000 85.6950 -3.2420 7.1136 -13.8400 22.5055 -2.7666 0.0000 0.0000 16.9467 -7.3113 -14.5488 1.8460 7.1250 -0.0000 -0.0000 18.4149 -43.8385 0.5475
2.6353 16.3624 -6.2725 -161.0680 -83.8031 157.4690 0.0000 0.0000 0.0000 -23.8762 12.1829 -2.3766 1.2500 7.0883 19.9774 1.4411 14.4830 -31.9276 0.1656 2.6215 7.2267 0.0000 0.0000 0.0000 16.5634 0.5924 -13.1369 -5.9705 -14.3997 44.8632 -2.3577 -14.6971 -37.2124 -0.0004 -0.1279 0.3515 -1.0385 -0.4729 -0.2398 0.0822 -0.6355 2.2901 0.6503 -0.3480 2.4944 -3.0415 -5.1345 -3.0902 2.2224 -6.7729 1.0862 1.0620 -3.3720 1.0400 -0.0000 0.0000 0.0000 -87.4024 -2.5382 10.0096 9.8049 -16.4338 -1.4193 -0.0000 0.0000 -4.8859 7.5961 22.4815 2.9192 -7.1250 0.0000 -0.0000 -21.4652 51.3545 -3.4958 -0.0000 0.0000 0.0000 85.6594 -3.2052 7.1829 -13.8662 22.5431 -2.7766 0.0000 0.0000 16.8702 -7.6704 -14.6305 1.9483 7.1250 -0.0000 -0.0000 18.1276 -43.9560 0.4838
2.6364 16.3610 -6.2561 -160.3380 -83.9867 156.7010 0.0000 0.0000 0.0000 -23.8945 12.2410 -2.3499 1.2461 7.0777 19.9459 1.4314 14.3652 -31.7641 0.1602 2.5786 7.1077 0.0000 0.0000 0.0000 16.4819 0.5703 -13.1935 -6.0193 -14.4470 45.0592 -2.3334 -14.7759 -37.1482 -0.0003 -0.1111 0.3052 -1.0766 -0.4637 -0.2295 0.0613 -0.6225 2.3031 0.6506 -0.3423 2.5019 -3.1209 -5.2029 -3.0590 2.3085 -6.8641 1.1082 1.1005 -3.4172 1.0509 -0.0000 -0.0000 0.0000 -87.3601 -2.4656 10.0156 9.8203 -16.4580 -1.4236 -0.0000 0.0000 -4.8953 7.4219 22.6949 2.8773 -7.1250 0.0000 -0.0000 -21.7397 51.5243 -3.6377 -0.0000 -0.0000 0.0000 85.6271 -3.1728 7.2380 -13.8934 22.5821 -2.7871 0.0000 0.0000 16.7601 -8.1638 -14.6020 2.0713 7.1250 -0.0000 -0.0000 17.6849 -43.9828 0.4591
2.6378 16.3598 -6.2397 -159.4720 -84.1695 155.7960 0.0000 0.0000 0.0000 -23.9027 12.2976 -2.3251 1.2429 7.0689 19.9197 1.4221 14.2423 -31.5985 0.1548 2.5355 6.9880 0.0000 0.0000 0.0000 16.4093 0.5505 -13.2491 -6.0687 -14.4946 45.2569 -2.3036 -14.8790 -37.0742 -0.0002 -0.0855 0.2350 -1.1016 -0.4541 -0.2131 0.0415 -0.6092 2.3158 0.6447 -0.3361 2.5055 -3.2004 -5.2706 -3.0289 2.3973 -6.9544 1.1286 1.1399 -3.4618 1.0618 -0.0000 0.0000 0.0000 -87.3163 -2.3991 10.0024 9.8335 -16.4788 -1.4274 -0.0000 0.0000 -4.8850 7.3529 22.8362 2.8670 -7.1250 0.0000 -0.0000 -21.8788 51.6440 -3.7291 -0.0000 0.0000 0.0000 85.5967 -3.1380 7.2839 -13.9151 22.6132 -2.7954 0.0000 0.0000 16.6279 -8.7903 -14.5097 2.2187 7.1250 -0.0000 -0.0000 17.1038 -43.9631 0.4516
2.6392 16.3585 -6.2233 -158.5120 -84.3514 154.7970 0.0000 0.0000 0.0000 -23.9061 12.3584 -2.3025 1.2399 7.0608 19.8956 1.4124 14.1160 -31.4275 0.1492 2.4890 6.8592 0.0000 0.0000 0.0000 16.3397 0.5371 -13.3050 -6.1199 -14.5435 45.4609 -2.2710 -14.9943 -36.9954 -0.0001 -0.0596 0.1636 -1.1206 -0.4440 -0.1941 0.0220 -0.5956 2.3296 0.6358 -0.3297 2.5088 -3.2788 -5.3380 -2.9955 2.4874 -7.0445 1.1420 1.1797 -3.5063 1.0702 -0.0000 0.0000 0.0000 -87.2713 -2.3493 9.9560 9.8365 -16.4835 -1.4282 -0.0000 0.0000 -4.8401 7.4040 22.9109 2.8961 -7.1250 0.0000 -0.0000 -21.8699 51.7216 -3.7704 -0.0000 0.0000 0.0000 85.5711 -3.1043 7.3346 -13.9374 22.6452 -2.8040 0.0000 0.0000 16.4837 -9.5623 -14.3992 2.3988 7.1250 -0.0000 -0.0000 16.3881 -43.9411 0.4407
